<svg xmlns="http://www.w3.org/2000/svg" version="1.1" xmlns:xlink="http://www.w3.org/1999/xlink" viewBox="0 0 200 200"><rect width="200" height="200" fill="url('#gradient')"></rect><defs><linearGradient id="gradient" gradientTransform="rotate(107 0.5 0.5)"><stop offset="0%" stop-color="#79ca9f"></stop><stop offset="100%" stop-color="#fcfbf3"></stop></linearGradient></defs><g><g fill="#2e2f30" transform="matrix(1.3708648934296284,0,0,1.3708648934296284,22.528753487144485,110.14674381990552)" stroke="#1d7d80" stroke-width="0.2"><path d="M6.69-4.82L4.50-4.82L4.50 0L1.07 0L1.07-14.22L6.75-14.22Q8.38-14.22 9.63-13.62Q10.89-13.02 11.58-11.91Q12.27-10.80 12.27-9.39L12.27-9.39Q12.27-7.31 10.78-6.07Q9.29-4.82 6.69-4.82L6.69-4.82ZM4.50-11.57L4.50-7.47L6.75-7.47Q7.74-7.47 8.27-7.97Q8.79-8.47 8.79-9.38L8.79-9.38Q8.79-10.37 8.25-10.97Q7.71-11.56 6.79-11.57L6.79-11.57L4.50-11.57ZM17.41-10.57L17.41 0L14.11 0L14.11-10.57L17.41-10.57ZM13.92-13.29L13.92-13.29Q13.92-13.99 14.42-14.44Q14.93-14.89 15.74-14.89Q16.55-14.89 17.06-14.44Q17.57-13.99 17.57-13.29Q17.57-12.59 17.06-12.14Q16.55-11.69 15.74-11.69Q14.93-11.69 14.42-12.14Q13.92-12.59 13.92-13.29ZM22.24-10.57L23.72-7.66L25.25-10.57L28.67-10.57L25.89-5.42L28.81 0L25.37 0L23.71-3.13L22.08 0L18.62 0L21.55-5.42L18.78-10.57L22.24-10.57ZM33.20-10.57L33.20 0L29.90 0L29.90-10.57L33.20-10.57ZM29.71-13.29L29.71-13.29Q29.71-13.99 30.21-14.44Q30.72-14.89 31.53-14.89Q32.34-14.89 32.85-14.44Q33.36-13.99 33.36-13.29Q33.36-12.59 32.85-12.14Q32.34-11.69 31.53-11.69Q30.72-11.69 30.21-12.14Q29.71-12.59 29.71-13.29ZM40.34 0.20L40.34 0.20Q37.91 0.20 36.41-1.25Q34.90-2.71 34.90-5.03L34.90-5.03L34.90-5.30Q34.90-6.92 35.50-8.16Q36.10-9.40 37.26-10.08Q38.41-10.76 39.99-10.76L39.99-10.76Q42.22-10.76 43.51-9.38Q44.79-8.00 44.79-5.53L44.79-5.53L44.79-4.25L38.25-4.25Q38.43-3.36 39.02-2.85Q39.62-2.34 40.57-2.34L40.57-2.34Q42.13-2.34 43.01-3.44L43.01-3.44L44.51-1.66Q43.90-0.81 42.77-0.31Q41.64 0.20 40.34 0.20ZM39.97-8.22L39.97-8.22Q38.53-8.22 38.25-6.31L38.25-6.31L41.57-6.31L41.57-6.56Q41.59-7.35 41.17-7.79Q40.75-8.22 39.97-8.22ZM63.13-14.22L63.13 0L59.73 0L59.73-5.94L54.68-5.94L54.68 0L51.25 0L51.25-14.22L54.68-14.22L54.68-8.57L59.73-8.57L59.73-14.22L63.13-14.22ZM64.75-4.82L64.74-5.38Q64.74-6.96 65.35-8.20Q65.97-9.43 67.12-10.10Q68.27-10.76 69.82-10.76L69.82-10.76Q72.20-10.76 73.56-9.29Q74.93-7.82 74.93-5.29L74.93-5.29L74.93-5.18Q74.93-2.71 73.56-1.25Q72.19 0.20 69.84 0.20L69.84 0.20Q67.59 0.20 66.22-1.16Q64.85-2.51 64.75-4.82L64.75-4.82ZM68.04-5.77L68.03-5.18Q68.03-3.71 68.49-3.03Q68.95-2.34 69.84-2.34L69.84-2.34Q71.60-2.34 71.64-5.05L71.64-5.05L71.64-5.38Q71.64-8.22 69.82-8.22L69.82-8.22Q68.17-8.22 68.04-5.77L68.04-5.77ZM79.85-15L79.85 0L76.55 0L76.55-15L79.85-15ZM85.35-15L85.35 0L82.05 0L82.05-15L85.35-15ZM86.97-4.82L86.96-5.38Q86.96-6.96 87.58-8.20Q88.19-9.43 89.35-10.10Q90.50-10.76 92.05-10.76L92.05-10.76Q94.42-10.76 95.79-9.29Q97.16-7.82 97.16-5.29L97.16-5.29L97.16-5.18Q97.16-2.71 95.79-1.25Q94.41 0.20 92.07 0.20L92.07 0.20Q89.81 0.20 88.45-1.16Q87.08-2.51 86.97-4.82L86.97-4.82ZM90.26-5.77L90.25-5.18Q90.25-3.71 90.71-3.03Q91.17-2.34 92.07-2.34L92.07-2.34Q93.83-2.34 93.87-5.05L93.87-5.05L93.87-5.38Q93.87-8.22 92.05-8.22L92.05-8.22Q90.40-8.22 90.26-5.77L90.26-5.77ZM106.07-10.57L107.73-4.34L108.80-10.57L111.95-10.57L109.46 0L106.68 0L104.93-6.27L103.17 0L100.39 0L97.90-10.57L101.05-10.57L102.10-4.19L103.78-10.57L106.07-10.57Z"></path></g></g></svg>